<?xml version="1.0" encoding="utf-8"?>
<!-- Generator: Adobe Illustrator 19.0.0, SVG Export Plug-In . SVG Version: 6.00 Build 0)  -->
<svg version="1.1" id="Слой_1" xmlns="http://www.w3.org/2000/svg" xmlns:xlink="http://www.w3.org/1999/xlink" x="0px" y="0px"
	 viewBox="0 0 16 16" style="enable-background:new 0 0 16 16;" xml:space="preserve">
<style type="text/css">
	.st0{fill-rule:evenodd;clip-rule:evenodd;}
</style>
<g id="XMLID_6_">
	<path fill="#2596ca" d="M8,0C3.6,0,0,3.6,0,8c0,4.4,3.6,8,8,8c4.4,0,8-3.6,8-8C16,3.6,12.4,0,8,0L8,0z M8,15
		c-3.9,0-7-3.1-7-7c0-3.9,3.1-7,7-7c3.9,0,7,3.1,7,7C15,11.9,11.9,15,8,15L8,15z M11,7.5H8.5V5c0-0.3-0.2-0.5-0.5-0.5
		C7.7,4.5,7.5,4.7,7.5,5v2.5H5C4.7,7.5,4.5,7.7,4.5,8c0,0.3,0.2,0.5,0.5,0.5h2.5V11c0,0.3,0.2,0.5,0.5,0.5c0.3,0,0.5-0.2,0.5-0.5
		V8.5H11c0.3,0,0.5-0.2,0.5-0.5C11.5,7.7,11.3,7.5,11,7.5L11,7.5z M11,7.5"/>
</g>
</svg>
